<svg xmlns="http://www.w3.org/2000/svg" viewBox="0 0 128 128" role="img" aria-label="Node.js">
  <path fill="#539E43" d="M114.5 79.1 68.6 105.6c-2.9 1.7-6.5 1.7-9.4 0L13.3 79.1c-2.9-1.7-4.7-4.8-4.7-8.2V36.1c0-3.4 1.8-6.5 4.7-8.2L59.2 1.4c2.9-1.7 6.5-1.7 9.4 0l45.9 26.5c2.9 1.7 4.7 4.8 4.7 8.2v34.8c0 3.4-1.8 6.5-4.7 8.2z"/>
  <path fill="#fff" d="M64 28.5c-12.1 0-19.7 6.1-23.1 13.6l10.6 4.4c2-4 5.6-7.4 12.5-7.4 7.8 0 11.5 4.7 11.5 10.3 0 8.5-6.1 11.5-15.8 16.4l-5.4 2.9c-7.7 4.1-12.5 9.3-12.5 17.5 0 8.8 6.6 15.5 16.9 15.5 7.3 0 12.5-2.5 16.3-8.9l-10.4-6.7c-2.4 3.8-5.6 6.3-10.4 6.3-4.4 0-7.2-2.8-7.2-6.5 0-4.5 3.2-6.3 8.4-9.1l5.4-2.9c9.9-5.3 16.4-10.8 16.4-23.4 0-11.3-8.6-17.9-21.1-17.9z"/>
</svg>
