<svg xmlns="http://www.w3.org/2000/svg" viewBox="0 0 128 128" role="img" aria-label="Python">
  <path fill="#3776AB" d="M63.9 12.5c-24.7 0-23.2 10.7-23.2 10.7v11h23.6v3.3H29.4S16.5 35.3 16.5 60.1c0 24.8 11.1 23.9 11.1 23.9h6.6v-11.5s-.4-11.1 10.9-11.1h18.8s10.6.2 10.6-10.1V23.3s1.6-10.3-10.8-10.8z"/>
  <path fill="#FFD43B" d="M64.1 115.5c24.7 0 23.2-10.7 23.2-10.7V93.8H63.7v-3.3h34.9s12.9 1.6 12.9-23.2c0-24.8-11.1-23.9-11.1-23.9h-6.6v11.5s.4 11.1-10.9 11.1H64.3s-10.6-.2-10.6 10.1v18.9s-1.6 10.3 10.8 10.8z"/>
  <circle fill="#3776AB" cx="47.8" cy="29.5" r="5.5"/>
  <circle fill="#FFD43B" cx="80.2" cy="98.5" r="5.5"/>
</svg>
